<svg width="25" height="25" viewBox="0 0 25 25" fill="none" xmlns="http://www.w3.org/2000/svg">
<path d="M8 2C7.20435 2 6.44129 2.31607 5.87868 2.87868C5.31607 3.44129 5 4.20435 5 5V8.6015C5.4636 8.33307 5.97168 8.15016 6.5 8.0615V5C6.5 4.60218 6.65804 4.22064 6.93934 3.93934C7.22064 3.65804 7.60218 3.5 8 3.5H12.5V7.25C12.5 7.84674 12.7371 8.41903 13.159 8.84099C13.581 9.26295 14.1533 9.5 14.75 9.5H18.5V20C18.5 20.3978 18.342 20.7794 18.0607 21.0607C17.7794 21.342 17.3978 21.5 17 21.5H13.448C13.1465 22.0667 12.7368 22.5687 12.242 22.9775L12.215 23H17C17.7956 23 18.5587 22.6839 19.1213 22.1213C19.6839 21.5587 20 20.7956 20 20V8.621C19.9995 8.02446 19.7621 7.45255 19.34 7.031L14.9705 2.6585C14.7615 2.4496 14.5133 2.28393 14.2403 2.17094C13.9672 2.05795 13.6745 1.99987 13.379 2H8ZM18.1895 8H14.75C14.5511 8 14.3603 7.92098 14.2197 7.78033C14.079 7.63968 14 7.44891 14 7.25V3.8105L18.1895 8ZM10.25 12.5C10.25 13.2956 9.93393 14.0587 9.37132 14.6213C8.80871 15.1839 8.04565 15.5 7.25 15.5C6.45435 15.5 5.69129 15.1839 5.12868 14.6213C4.56607 14.0587 4.25 13.2956 4.25 12.5C4.25 11.7044 4.56607 10.9413 5.12868 10.3787C5.69129 9.81607 6.45435 9.5 7.25 9.5C8.04565 9.5 8.80871 9.81607 9.37132 10.3787C9.93393 10.9413 10.25 11.7044 10.25 12.5ZM12.5 19.25C12.5 21.1175 11 23 7.25 23C3.5 23 2 21.125 2 19.25C2 18.6533 2.23705 18.081 2.65901 17.659C3.08097 17.2371 3.65326 17 4.25 17H10.25C10.8467 17 11.419 17.2371 11.841 17.659C12.2629 18.081 12.5 18.6533 12.5 19.25Z" fill="#667181"/>
</svg>
